<svg width="35" height="35" viewBox="0 0 35 35" fill="none" xmlns="http://www.w3.org/2000/svg">
<path d="M2.99302 0.191134C1.91238 1.16493 1.16008 1.58453 1.05558 1.99281C0.658758 3.51294 0.140069 5.08414 0.22943 6.5566C0.29861 10.5367 2.03281 13.8707 4.5591 16.8726C8.84957 21.9983 14.8524 25.6251 21.6498 28.6062C22.376 28.9265 23.0412 29.2724 23.7872 29.6364C23.8071 29.6802 23.7859 29.7932 23.7237 29.9755C22.2639 30.2752 20.7432 30.6004 19.3032 30.9439C18.5323 31.163 17.6793 31.5207 17.0277 32.0022C16.6409 32.2685 16.2504 33.005 16.3896 33.3111C16.5687 33.7046 17.2139 34.0068 17.7386 34.2033C18.1427 34.2942 18.711 34.1079 19.2382 33.991C23.1924 33.1139 27.1864 32.3243 31.1816 31.378C34.5887 30.5741 35.2863 29.3965 34.0892 27.2431C32.8522 25.0022 31.7371 22.7103 30.581 20.4876C30.2019 19.8135 29.6809 19.1468 29.201 18.4109C27.0199 20.3147 27.0199 20.3147 29.3281 27.7816C24.0971 26.3304 20.0264 24.0803 16.0988 21.6661C12.1711 19.2518 8.9559 16.3306 6.37246 12.8841C3.72935 9.3064 3.07453 5.15533 2.99302 0.191134Z" fill="#010101"/>
</svg>
