<svg width="70" height="63" viewBox="0 0 70 63" fill="none" xmlns="http://www.w3.org/2000/svg">
<g clip-path="url(#clip0_900_936)">
<path d="M38.8302 19.0826C37.6022 19.6014 36.0499 20.0474 34.7765 20.8296C32.1175 22.4861 29.5515 24.2545 26.9855 26.023C22.1372 29.4023 17.2627 32.8407 11.9924 36.529C16.5031 36.9687 20.8931 34.9454 25.2003 37.7752C24.4681 38.3012 24.0865 38.8407 23.736 38.8271C18.2477 38.663 12.9354 39.7106 7.73016 41.16C3.44299 42.3076 2.14889 40.8838 3.43779 36.8486C4.80544 32.6358 5.75594 28.2381 6.94481 23.946C7.11434 23.2416 7.66768 22.6364 8.09473 21.8336C10.1324 24.1537 10.1324 24.1537 8.36695 33.9304C9.18493 33.3716 9.86457 32.9641 10.4846 32.5302C16.7042 27.987 22.8642 23.4173 29.1767 18.9861C31.2348 17.5595 33.4787 16.357 35.7964 15.4706C39.9169 13.8948 43.0229 15.4129 44.3661 19.6222C45.0543 21.7696 45.2276 24.1141 45.2816 26.4057C45.3498 28.9871 44.9817 31.5877 44.9045 34.1755C44.8776 36.0061 45.0557 37.8567 45.1218 39.7994C47.2842 39.9071 48.603 38.8616 49.9886 37.9874C55.8407 34.2734 60.9563 29.8079 65.6002 24.6374C66.1535 24.0322 66.614 23.3149 67.3198 22.8482C67.7157 22.5984 68.5025 22.5927 68.9793 22.8039C69.2176 22.9096 69.4057 23.7724 69.3078 24.1542C68.9212 25.1876 68.3629 26.2867 67.7045 27.1288C63.0174 33.2015 57.408 38.2986 50.8692 42.2752C49.5695 43.1166 48.0839 43.7339 46.6175 44.1471C43.9422 44.875 42.0018 43.9444 41.2589 41.2766C40.6565 39.0963 40.5428 36.7783 40.5484 34.5131C40.5306 31.1745 40.9228 27.8758 40.9049 24.5372C40.8459 22.7395 40.694 20.8297 38.8302 19.0826Z" fill="#010101"/>
</g>
<defs>
<clipPath id="clip0_900_936">
<rect width="57.1602" height="43.2366" fill="white" transform="translate(52.2598 62.6865) rotate(-156.102)"/>
</clipPath>
</defs>
</svg>
