<svg width="1440" height="1002" viewBox="0 0 1440 1002" fill="none" xmlns="http://www.w3.org/2000/svg">
<g opacity="0.99" filter="url(#filter0_f_1189_14207)">
<path d="M320.681 762.398C309.577 762.509 298.942 758.769 287.943 751C274.558 741.545 262.285 727.288 249.291 712.193C225.397 684.435 198.316 652.974 157.881 646.321C107.954 638.107 56.6417 670.179 5.37045 741.649L4.58366 740.681C56.1028 668.866 107.724 636.649 158.009 644.922C198.777 651.63 225.992 683.245 250.003 711.14C276.243 741.624 298.905 767.951 332.971 759.333C371.574 749.568 394.473 702.675 416.619 657.326C427.837 634.355 438.432 612.658 450.553 597.133C464.263 579.573 477.833 572.612 493.261 575.221C519.617 579.682 533.836 610.416 547.587 640.138C560.82 668.742 574.504 698.32 598.967 704.147C634.641 712.642 657.654 663.091 684.297 605.713C710.774 548.691 740.784 484.061 790.354 461.683C807.87 453.775 823 453.164 837.969 459.761C851.345 465.655 863.064 476.638 875.473 488.265C900.412 511.636 928.679 538.127 979.89 531.663C1029.38 525.421 1058.23 494.29 1086.14 464.185C1101.51 447.6 1116.03 431.934 1133.24 421.434C1152.62 409.607 1172.45 406.169 1195.64 410.614C1218.73 415.038 1236.59 425.913 1252.35 435.507C1276.9 450.453 1296.29 462.257 1324.17 445.34C1357.23 425.279 1385.89 373.951 1409.37 292.783L1410.38 293.289C1386.8 374.812 1357.95 426.4 1324.63 446.62C1311.63 454.506 1299.59 456.75 1286.71 453.681C1275.12 450.918 1263.84 444.053 1251.9 436.786C1236.21 427.233 1218.42 416.404 1195.49 412.01C1145.15 402.363 1116.82 432.922 1086.83 465.276C1073.06 480.126 1058.83 495.481 1041.79 507.933C1022.5 522.034 1002.29 530.256 980 533.067C928.384 539.58 899.943 512.926 874.849 489.411C849.97 466.097 828.483 445.964 790.71 463.017C741.505 485.231 711.601 549.632 685.218 606.451C658.369 664.272 635.182 714.204 598.779 705.536C573.837 699.594 560.025 669.738 546.666 640.865C533.049 611.431 518.967 580.994 493.128 576.62C478.053 574.067 464.765 580.908 451.308 598.145C439.275 613.558 428.711 635.189 417.527 658.091C406.614 680.44 395.328 703.55 381.869 722.378C366.588 743.755 350.662 756.297 333.182 760.718C328.925 761.794 324.77 762.358 320.681 762.398Z" fill="url(#paint0_linear_1189_14207)"/>
<path d="M323.139 756.577C311.47 756.693 300.303 752.778 288.667 744.596C275.28 735.184 263.002 721.349 250.002 706.702C225.751 679.377 198.265 648.407 157.833 642.933C151.739 642.129 145.542 641.941 139.416 642.374C95.8118 645.284 51.4432 678.927 7.54039 742.368L6.74085 741.418C50.8405 677.692 95.4577 643.895 139.354 640.966C145.534 640.529 151.787 640.719 157.936 641.53C176.169 643.999 193.298 651.728 210.304 665.16C225.279 676.99 238.203 691.552 250.701 705.634C275.952 734.086 299.801 760.957 333.472 754.029C371.978 746.103 395.656 702.036 418.554 659.419C428.553 640.809 437.998 623.231 448.429 609.09C455.956 598.887 463.128 591.676 470.354 587.045C478.712 581.689 487.186 579.692 496.256 580.94C522.451 584.472 536.842 612.64 550.759 639.88C564.061 665.915 577.815 692.836 601.797 696.934C636.233 702.823 659.102 655.365 685.583 600.419C699.549 571.439 713.991 541.474 731.715 515.586C751.865 486.352 772.576 467.619 795.031 458.317C812.523 451.003 827.716 450.822 842.844 457.749C856.351 463.934 868.236 475.072 880.819 486.863C905.74 510.216 933.988 536.687 983.801 531.996C1033.2 527.348 1062.67 497.929 1091.16 469.479C1103.88 456.779 1115.9 444.783 1129.44 435.11C1151.92 418.989 1174.32 413.319 1199.92 417.268C1222.12 420.692 1239.5 429.975 1254.84 438.165C1279.44 451.306 1298.88 461.686 1326.49 443.809C1358.99 422.552 1387.35 370.832 1410.76 290.085L1411.77 290.593C1401.65 325.495 1390.52 355.272 1378.69 379.098C1362.99 410.699 1345.59 432.896 1326.97 445.073C1314.11 453.404 1302.14 456.228 1289.3 453.958C1277.73 451.912 1266.41 445.869 1254.43 439.471C1239.16 431.315 1221.85 422.07 1199.8 418.669C1174.43 414.756 1152.24 420.374 1129.97 436.348C1116.49 445.971 1104.51 457.935 1091.82 470.602C1063.2 499.177 1033.6 528.725 983.884 533.403C980.341 533.736 976.904 533.913 973.572 533.947C929.683 534.384 903.496 509.842 880.195 488.008C854.926 464.329 833.101 443.879 795.362 459.662C773.091 468.887 752.535 487.49 732.517 516.532C714.854 542.331 700.436 572.246 686.494 601.176C661.431 653.181 639.575 698.523 607.902 698.842C605.863 698.862 603.787 698.696 601.663 698.333C577.194 694.152 563.301 666.958 549.865 640.66C536.087 613.692 521.84 585.807 496.15 582.342C479.519 580.053 465.041 588.608 449.205 610.073C438.832 624.134 429.41 641.67 419.435 660.234C408.113 681.308 396.404 703.098 382.683 720.602C367.13 740.442 351.09 751.831 333.645 755.422C330.083 756.156 326.588 756.542 323.139 756.577Z" fill="url(#paint1_linear_1189_14207)"/>
<path d="M325.978 750.816C296.46 751.11 274.27 726.827 250.89 701.241C225.034 672.947 198.298 643.689 157.786 639.545C151.933 638.947 145.772 638.975 139.477 639.63C96.1741 644.138 52.5142 678.945 9.71032 743.086L8.89804 742.155C51.8919 677.73 95.7943 642.762 139.385 638.225C145.737 637.564 151.954 637.535 157.865 638.139C176.142 640.009 193.372 647.261 210.538 660.309C225.673 671.813 238.842 686.224 251.578 700.161C276.871 727.84 300.762 753.983 333.973 748.726C372.458 742.634 396.961 701.294 420.656 661.315C430.882 644.061 440.541 627.765 451.182 614.366C467.79 593.454 482.614 584.909 499.251 586.659C525.262 589.262 539.821 614.831 553.902 639.56C567.896 664.134 581.113 687.347 604.626 689.724C637.714 693.08 660.277 647.884 686.405 595.563C701.216 565.903 716.531 535.234 735.589 509.197C755.96 481.367 776.932 463.624 799.706 454.954C817.185 448.299 832.45 448.588 847.746 455.862C861.391 462.351 873.441 473.631 886.197 485.573C911.082 508.869 939.279 535.27 987.711 532.33C1037.22 529.322 1067.42 501.491 1096.61 474.576C1108.5 463.618 1120.8 452.286 1134.01 443.149C1157.26 426.935 1178.91 421.006 1204.2 423.925C1225.46 426.379 1242.33 434.133 1257.23 440.974C1281.95 452.334 1301.49 461.307 1328.81 442.281C1360.69 420.08 1388.73 367.966 1412.16 287.389L1413.16 287.897C1402.86 323.339 1392.1 352.326 1380.28 376.514C1364.78 408.227 1347.63 430.773 1329.32 443.527C1316.59 452.39 1304.7 455.842 1291.88 454.387C1280.32 453.075 1268.93 447.843 1256.87 442.305C1242.04 435.491 1225.23 427.768 1204.11 425.33C1179.05 422.436 1157.58 428.315 1134.52 444.396C1121.36 453.492 1109.64 464.294 1097.24 475.73C1067.91 502.761 1037.59 530.712 987.767 533.739C985.655 533.868 983.574 533.941 981.538 533.961C936.512 534.411 909.519 509.135 885.574 486.719C859.91 462.693 837.746 441.944 800.012 456.309C777.423 464.908 756.605 482.528 736.369 510.177C717.38 536.119 702.092 566.733 687.307 596.339C662.017 646.984 640.038 690.991 608.429 691.309C607.151 691.322 605.86 691.264 604.549 691.131C593.764 690.04 584.076 684.404 574.93 673.9C566.799 664.561 559.805 652.278 553.041 640.398C539.105 615.925 524.695 590.619 499.174 588.065C482.869 586.352 468.299 594.776 451.931 615.386C441.346 628.714 431.71 644.971 421.509 662.183C397.679 702.389 373.038 743.963 334.109 750.126C331.336 750.565 328.626 750.789 325.978 750.816Z" fill="url(#paint2_linear_1189_14207)"/>
<path d="M328.81 745.178C298.563 745.481 275.83 721.328 251.841 695.845C225.539 667.904 198.341 639.012 157.74 636.157C151.923 635.748 145.969 635.986 139.538 636.886C96.6051 642.896 53.655 678.868 11.8802 743.805L11.0552 742.893C53.0134 677.67 96.2006 641.532 139.418 635.484C145.906 634.576 151.917 634.336 157.792 634.748C176.118 636.037 193.456 642.826 210.797 655.502C226.102 666.691 239.531 680.956 252.517 694.752C277.83 721.641 301.736 747.036 334.474 743.425C373.035 739.166 398.426 700.448 422.982 663.004C433.36 647.18 443.162 632.233 453.936 619.644C471.029 599.669 485.929 591.262 502.245 592.38C528.024 594.148 542.741 617.051 556.973 639.201C571.066 661.135 584.378 681.852 607.453 682.517C607.899 682.53 608.346 682.534 608.789 682.53C639.888 682.22 661.881 639.649 687.294 590.463C702.93 560.199 719.098 528.906 739.464 502.81C760.179 476.267 781.415 459.513 804.383 451.591C821.853 445.564 837.195 446.311 852.666 453.938C866.457 460.736 878.684 472.18 891.627 484.295C916.465 507.542 944.628 533.877 991.623 532.666C1041.64 531.36 1072.79 504.886 1102.91 479.283C1114.27 469.633 1126.01 459.654 1138.57 451.19C1162.46 435.097 1184.03 428.741 1208.48 430.583C1228.75 432.107 1245.07 438.354 1259.48 443.864C1284.37 453.388 1304.03 460.909 1331.13 440.754C1362.87 417.142 1389.83 366.094 1413.55 284.693L1414.56 285.202C1404.23 320.624 1393.54 349.633 1381.86 373.885C1366.55 405.679 1349.66 428.59 1331.66 441.98C1319.05 451.367 1307.2 455.449 1294.39 454.824C1282.82 454.26 1271.34 449.868 1259.18 445.218C1244.83 439.728 1228.57 433.506 1208.43 431.99C1184.17 430.164 1162.78 436.473 1139.07 452.444C1126.55 460.877 1114.84 470.836 1103.5 480.466C1073.25 506.177 1041.97 532.762 991.65 534.075C990.988 534.092 990.328 534.104 989.673 534.111C943.494 534.57 915.63 508.489 891.004 485.44C864.92 461.025 842.391 439.941 804.663 452.954C781.878 460.813 760.799 477.452 740.219 503.82C719.93 529.817 703.793 561.051 688.187 591.257C662.237 641.483 639.834 684.851 607.435 683.926C596.846 683.621 587.269 679.025 578.158 669.876C570.047 661.732 562.983 650.737 556.151 640.105C542.068 618.187 527.506 595.523 502.195 593.787C486.185 592.696 471.522 600.989 454.656 620.697C443.935 633.225 434.155 648.138 423.801 663.926C399.105 701.583 373.568 740.523 334.571 744.829C332.621 745.045 330.699 745.159 328.81 745.178Z" fill="url(#paint3_linear_1189_14207)"/>
<path d="M14.0502 744.523L13.2128 743.631C54.1425 677.605 96.6151 640.298 139.451 632.744C145.973 631.593 151.947 631.14 157.719 631.358C198.803 632.909 226.647 661.628 253.574 689.401C278.865 715.486 302.755 740.127 334.976 738.123C373.73 735.714 400.101 699.498 425.604 664.475C435.575 650.782 445.886 636.622 456.69 624.92C468.556 612.068 484.796 597.403 505.239 598.1C530.762 598.968 545.628 619.198 560.003 638.762C574.209 658.096 587.637 676.351 610.279 675.311C640.812 673.901 662.709 632.869 688.065 585.358C704.548 554.472 721.592 522.535 743.339 496.423C764.387 471.15 785.884 455.386 809.059 448.228C826.526 442.834 841.953 444.043 857.611 452.034C871.557 459.151 883.969 470.769 897.109 483.069C921.885 506.26 949.966 532.546 995.535 533C996.575 533.011 997.615 533.011 998.639 533.001C1047.55 532.514 1077.8 508.849 1109.78 483.821C1120.42 475.495 1131.42 466.886 1143.14 459.229C1159.62 448.457 1182.43 436.224 1212.76 437.24C1231.98 437.884 1247.7 442.671 1261.57 446.893C1286.7 454.539 1306.54 460.579 1333.45 439.226C1364.6 414.507 1391.26 363.077 1414.95 281.997L1415.95 282.507C1405.61 317.905 1394.98 346.933 1383.44 371.251C1368.33 403.124 1351.69 426.4 1334.01 440.433C1306.73 462.083 1286.7 455.986 1261.34 448.266C1247.51 444.059 1231.85 439.29 1212.74 438.649C1182.65 437.636 1160 449.791 1143.62 460.491C1131.94 468.125 1120.96 476.72 1110.34 485.032C1094.58 497.36 1078.29 510.108 1060 519.363C1039.55 529.717 1018.46 534.639 995.532 534.41C949.622 533.952 921.393 507.528 896.486 484.214C869.962 459.385 847.055 437.944 809.312 449.6C786.32 456.701 764.979 472.358 744.07 497.464C722.409 523.472 705.399 555.346 688.949 586.17C663.429 633.988 641.39 675.285 610.323 676.719C609.82 676.743 609.319 676.757 608.825 676.762C586.596 676.984 573.296 658.88 559.229 639.737C545.006 620.379 530.297 600.362 505.217 599.509C485.131 598.844 469.102 613.313 457.379 626.008C446.624 637.657 436.335 651.787 426.386 665.451C400.737 700.674 374.215 737.096 335.033 739.531C333.979 739.596 332.93 739.634 331.894 739.644C300.848 739.956 277.543 715.913 252.91 690.506C226.122 662.875 198.421 634.304 157.693 632.767C151.982 632.552 146.064 633.001 139.6 634.141C97.0442 641.646 54.8028 678.783 14.0502 744.523Z" fill="url(#paint4_linear_1189_14207)"/>
<path d="M16.2201 745.241L15.3704 744.369C55.2786 677.533 97.0364 639.056 139.483 630.004C146.028 628.608 151.97 627.942 157.645 627.968C198.65 628.155 226.925 656.705 254.27 684.314C279.143 709.429 302.665 733.179 333.592 732.871C334.214 732.865 334.838 732.849 335.466 732.823C374.683 731.211 402.24 697.626 428.89 665.146C438.701 653.188 448.847 640.823 459.445 630.198C472.357 617.253 488.195 604.018 507.84 603.823C507.971 603.821 508.101 603.821 508.233 603.821C533.45 603.793 548.445 621.318 562.946 638.267C577.291 655.033 590.838 670.869 613.104 668.107C642.362 664.478 663.84 625.453 688.708 580.265C705.255 550.199 724.009 516.121 747.215 490.036C768.585 466.014 790.344 451.239 813.736 444.864C831.208 440.103 846.729 441.784 862.585 450.152C876.697 457.599 889.304 469.405 902.651 481.903C927.346 505.028 955.335 531.238 999.447 533.336C1051.34 535.803 1083.55 512.59 1117.65 488.014C1127.26 481.09 1137.2 473.93 1147.7 467.268C1167.32 454.832 1189.31 443.385 1217.05 443.898C1234.4 444.214 1248.96 447.483 1261.8 450.368C1287.84 456.214 1308.4 460.832 1335.77 437.699C1366.33 411.862 1392.69 360.049 1416.34 279.301L1417.34 279.812C1393.61 360.847 1367.12 412.881 1336.35 438.885C1320.67 452.143 1307.21 456.407 1293.73 456.542C1283.39 456.646 1273.03 454.319 1261.63 451.758C1248.82 448.882 1234.3 445.622 1217.04 445.308C1189.51 444.805 1167.68 456.177 1148.18 468.539C1137.7 475.184 1127.77 482.335 1118.17 489.25C1085.97 512.456 1055.44 534.452 1008.51 534.92C1005.54 534.949 1002.52 534.892 999.413 534.745C979.55 533.8 961.265 527.984 943.512 516.963C927.882 507.26 914.739 494.952 902.028 483.049C875.04 457.777 851.73 435.952 813.961 446.245C790.751 452.57 769.148 467.245 747.918 491.108C724.809 517.084 706.901 549.624 689.583 581.093C664.562 626.558 642.953 665.822 613.211 669.511C611.587 669.712 610.004 669.817 608.468 669.833C588.509 670.033 575.719 655.081 562.231 639.316C547.882 622.545 533.043 605.203 508.239 605.231C488.727 605.275 472.958 618.431 460.102 631.32C449.544 641.904 439.418 654.246 429.625 666.181C416.244 682.49 402.407 699.353 387.249 712.009C370.213 726.233 353.288 733.502 335.506 734.234C334.868 734.26 334.23 734.276 333.599 734.282C302.304 734.595 278.642 710.699 253.615 685.43C226.413 657.964 198.286 629.564 157.647 629.379C152.028 629.346 146.147 630.013 139.662 631.396C97.4894 640.389 55.9574 678.692 16.2201 745.241Z" fill="url(#paint5_linear_1189_14207)"/>
<path d="M18.3897 745.959L17.5279 745.107C56.4222 677.454 97.4648 637.806 139.516 627.265C146.074 625.621 151.98 624.742 157.572 624.579C199.052 623.35 228.054 651.596 256.101 678.898C281.206 703.336 304.918 726.418 335.981 727.524C375.623 728.939 403.094 698.707 432.177 666.704C441.826 656.087 451.803 645.108 462.201 635.476C475.616 623.05 491.931 610.251 511.227 609.542C536.069 608.627 551.165 623.422 565.764 637.727C580.286 651.957 594.003 665.401 615.93 660.905C643.907 655.173 664.902 618.113 689.213 575.2C706.615 544.481 726.339 509.665 751.092 483.649C772.776 460.857 794.797 447.071 818.414 441.502C835.899 437.378 851.526 439.537 867.593 448.297C881.884 456.088 894.697 468.095 908.263 480.807C932.854 503.853 960.727 529.972 1003.36 533.672C1056.91 538.318 1089.34 516.737 1126.9 491.748C1135.04 486.33 1143.46 480.727 1152.27 475.308C1170.78 463.926 1193.46 452.084 1221.32 450.556C1238.22 449.631 1252.54 451.696 1265.16 453.518C1290.99 457.247 1311.38 460.19 1338.09 436.172C1368.07 409.203 1394.13 357.008 1417.73 276.604L1418.74 277.116C1395.05 357.793 1368.87 410.201 1338.7 437.336C1321.39 452.904 1306.73 457.286 1291.58 457.437C1283.08 457.522 1274.42 456.272 1265.05 454.92C1252.46 453.103 1238.2 451.043 1221.37 451.966C1193.77 453.48 1172.07 464.693 1152.73 476.585C1143.94 481.996 1135.52 487.593 1127.39 493.007C1108.88 505.321 1091.4 516.952 1071.72 524.988C1049.64 534.007 1027.89 537.212 1003.3 535.08C984.097 533.414 966.273 527.163 948.806 515.971C933.418 506.111 920.313 493.83 907.64 481.954C880.164 456.206 856.436 433.968 818.611 442.89C795.174 448.417 773.31 462.11 751.77 484.751C727.124 510.654 707.444 545.394 690.08 576.045C665.629 619.204 644.512 656.478 616.103 662.299C613.233 662.887 610.502 663.175 607.892 663.201C590.148 663.379 577.946 651.421 565.123 638.855C550.672 624.695 535.723 610.058 511.264 610.952C492.255 611.65 476.111 624.324 462.827 636.629C452.465 646.227 442.506 657.188 432.874 667.786C418.854 683.214 404.356 699.166 388.73 710.687C371.208 723.606 353.946 729.581 335.958 728.934C304.554 727.816 280.708 704.604 255.463 680.029C227.562 652.871 198.711 624.783 157.602 625.989C152.072 626.151 146.224 627.021 139.725 628.65C97.9421 639.124 57.1192 678.592 18.3897 745.959Z" fill="url(#paint6_linear_1189_14207)"/>
<path d="M20.5592 746.677L19.6862 745.846C57.5718 677.367 97.8996 636.549 139.549 624.526C146.111 622.632 151.982 621.541 157.498 621.19C199.252 618.532 228.918 646.608 257.609 673.761C282.537 697.355 306.083 719.639 336.483 722.226C376.93 725.666 405.848 697.37 436.466 667.411C445.634 658.439 455.115 649.163 464.957 640.756C479.516 628.32 495.561 616.625 514.221 615.264C538.592 613.484 553.747 625.528 568.402 637.171C583.157 648.894 597.093 659.966 618.754 653.708C645.434 645.999 665.883 610.868 689.561 570.192C707.847 538.777 728.572 503.171 754.969 477.263C776.959 455.681 799.243 442.883 823.093 438.14C840.603 434.657 856.346 437.306 872.64 446.474C887.121 454.622 900.153 466.848 913.95 479.793C939.609 503.866 966.141 528.758 1007.28 534.009C1063.19 541.145 1097.88 519.679 1138.06 494.822C1144.12 491.075 1150.38 487.199 1156.84 483.349C1180.05 469.499 1200.63 459.756 1225.6 457.217C1241.2 455.631 1254.67 456.476 1266.56 457.221C1292.89 458.874 1313.7 460.179 1340.41 434.647C1369.82 406.532 1395.57 353.954 1419.13 273.908L1420.13 274.422C1409.74 309.717 1399.29 338.797 1388.18 363.323C1373.64 395.407 1357.78 419.788 1341.05 435.788C1314.03 461.611 1293.06 460.295 1266.51 458.63C1254.66 457.886 1241.22 457.043 1225.69 458.623C1200.88 461.146 1180.4 470.846 1157.29 484.633C1150.84 488.479 1144.58 492.352 1138.52 496.098C1103.96 517.484 1073.43 536.37 1030 536.804C1022.78 536.876 1015.2 536.437 1007.18 535.413C988.651 533.048 971.301 526.381 954.135 515.032C939.002 505.027 925.949 492.781 913.327 480.938C886.5 455.77 861.163 431.997 823.26 439.534C799.589 444.242 777.463 456.953 755.618 478.393C729.34 504.184 708.662 539.708 690.418 571.05C666.613 611.946 646.054 647.265 618.992 655.085C614.71 656.322 610.724 656.898 606.977 656.935C591.4 657.091 579.894 647.948 567.847 638.376C553.333 626.844 538.32 614.919 514.286 616.672C495.879 618.014 479.984 629.608 465.549 641.938C455.735 650.32 446.268 659.583 437.113 668.541C408.255 696.779 380.894 723.548 343.931 723.918C341.47 723.942 338.969 723.85 336.419 723.632C305.707 721.019 282.039 698.618 256.98 674.902C228.442 647.891 198.933 619.96 157.556 622.598C152.1 622.945 146.288 624.026 139.786 625.903C98.4004 637.85 58.2865 678.484 20.5592 746.677Z" fill="url(#paint7_linear_1189_14207)"/>
<path d="M22.7284 747.395L21.8438 746.585C58.7278 677.271 98.3407 635.283 139.581 621.789C146.134 619.644 151.97 618.34 157.424 617.801C199.504 613.64 229.906 641.639 259.307 668.715C283.993 691.449 307.31 712.923 336.985 716.929C378.585 722.543 409.283 695.945 441.784 667.782C450.144 660.539 458.787 653.049 467.713 646.036C485.135 632.348 500.22 622.85 517.213 620.988C540.983 618.379 556.815 628.084 570.782 636.645C585.849 645.88 600.081 654.602 621.578 646.512C646.934 636.968 666.766 603.743 689.729 565.271C708.93 533.101 730.693 496.639 758.846 470.878C781.138 450.48 803.683 438.671 827.771 434.778C845.319 431.942 861.193 435.091 877.73 444.686C892.417 453.208 905.683 465.674 919.727 478.872C945.219 502.827 971.578 527.597 1011.19 534.345C1070.38 544.432 1106.39 523.445 1151.97 496.873C1155.06 495.068 1158.21 493.236 1161.4 491.388C1181.74 479.621 1203.78 467.803 1229.88 463.878C1244.06 461.745 1256.56 461.499 1267.59 461.283C1294.59 460.754 1315.92 460.336 1342.73 433.121C1371.57 403.843 1397.01 350.881 1420.52 271.211L1421.53 271.726C1411.13 306.971 1400.73 336.065 1389.75 360.67C1375.41 392.817 1359.81 417.568 1343.39 434.237C1316.3 461.738 1294.81 462.159 1267.61 462.693C1256.61 462.908 1244.13 463.153 1230.01 465.279C1204.06 469.181 1182.11 480.955 1161.84 492.678C1158.65 494.526 1155.51 496.356 1152.41 498.162C1115.13 519.895 1084.22 537.906 1041.85 538.329C1032.24 538.425 1022.05 537.617 1011.06 535.744C993.216 532.704 976.353 525.642 959.506 514.152C944.642 504.016 931.659 491.815 919.103 480.016C891.75 454.312 865.916 430.034 827.908 436.177C803.999 440.041 781.611 451.771 759.466 472.035C731.445 497.675 709.734 534.05 690.579 566.142C667.502 604.806 647.571 638.197 621.881 647.867C615.936 650.105 610.54 651.083 605.531 651.133C592.102 651.267 581.442 644.732 570.33 637.921C555.809 629.02 540.794 619.816 517.31 622.391C500.522 624.232 485.565 633.658 468.271 647.246C459.366 654.242 450.732 661.724 442.382 668.959C412.925 694.484 384.937 718.733 348.936 719.093C345.015 719.132 341.004 718.888 336.881 718.331C306.926 714.287 282.405 691.705 258.691 669.866C229.447 642.935 199.21 615.088 157.511 619.207C152.119 619.74 146.341 621.032 139.848 623.156C98.8654 636.566 59.4606 678.366 22.7284 747.395Z" fill="url(#paint8_linear_1189_14207)"/>
<path d="M24.8973 748.112L24.0017 747.323C59.8913 677.163 98.789 634.006 139.614 619.051C146.148 616.658 151.949 615.141 157.349 614.414C199.823 608.695 231.038 636.694 261.224 663.772C284.522 684.671 308.612 706.281 337.487 711.633C380.731 719.649 413.692 694.427 448.589 667.725C455.662 662.314 462.976 656.717 470.47 651.318C485.727 640.323 502.134 629.367 520.207 626.71C543.187 623.335 558.909 630.183 572.781 636.226C588.956 643.274 602.926 649.361 624.404 639.319C648.398 628.102 667.535 596.765 689.692 560.48C709.845 527.478 732.686 490.073 762.723 464.494C785.316 445.255 808.123 434.436 832.449 431.418C870.997 426.635 897.525 451.615 925.608 478.061C950.895 501.875 977.043 526.499 1015.11 534.685C1075.66 547.709 1111.88 529.773 1165.97 499.429C1185.72 488.344 1208.12 475.78 1234.15 470.54C1246.76 468.004 1258.13 466.84 1268.16 465.814C1296.02 462.963 1318.02 460.711 1345.05 431.597C1373.33 401.134 1398.47 347.79 1421.92 268.516L1422.92 269.031C1412.51 304.216 1402.18 333.323 1391.33 358.015C1377.18 390.219 1361.84 415.343 1345.74 432.688C1318.45 462.083 1296.3 464.35 1268.25 467.22C1258.23 468.244 1246.89 469.405 1234.32 471.934C1208.42 477.147 1186.09 489.674 1166.39 500.726C1139.07 516.056 1117.95 527.427 1094.95 534.167C1069.27 541.688 1043.85 542.295 1014.94 536.077C976.624 527.837 950.371 503.114 924.982 479.205C897.069 452.919 870.704 428.091 832.557 432.822C808.407 435.817 785.758 446.564 763.314 465.677C733.421 491.133 710.637 528.445 690.534 561.365C668.275 597.816 649.051 629.297 624.771 640.648C616.666 644.437 609.62 645.97 603.128 646.035C592.138 646.145 582.734 642.047 572.447 637.565C558.68 631.567 543.077 624.768 520.333 628.112C502.456 630.74 486.156 641.627 470.993 652.554C463.512 657.945 456.204 663.537 449.136 668.945C431.233 682.643 414.323 695.582 396.286 704.21C375.99 713.918 357.26 716.722 337.342 713.03C308.217 707.631 284.02 685.926 260.619 664.935C230.594 638.001 199.547 610.154 157.466 615.817C152.127 616.535 146.384 618.038 139.91 620.409C99.3368 635.272 60.6411 678.237 24.8973 748.112Z" fill="url(#paint9_linear_1189_14207)"/>
<path d="M27.0665 748.829L26.16 748.062C61.06 677.047 99.2425 632.72 139.647 616.314C146.152 613.673 151.918 611.943 157.275 611.025C176.547 607.727 195.3 611.275 214.606 621.873C231.799 631.312 247.858 645.362 263.39 658.95C286.304 678.998 309.998 699.728 337.989 706.337C383.576 717.104 417.89 693.909 457.624 667.053C462.688 663.631 467.924 660.091 473.226 656.599C490.461 645.246 506.117 635.593 523.2 632.434C545.109 628.382 560.566 632.457 574.204 636.051C591.03 640.485 605.561 644.316 627.229 632.128C649.812 619.426 669.049 588.554 689.416 555.87C710.561 521.936 734.528 483.474 766.601 458.108C789.494 440.003 812.564 430.173 837.128 428.056C875.841 424.72 902.931 450.298 931.608 477.378C956.646 501.021 982.536 525.47 1019.02 535.024C1082.22 551.575 1121.68 534.043 1170.53 507.469C1172.04 506.645 1173.56 505.817 1175.08 504.986C1194.76 494.243 1215.1 483.135 1238.43 477.203C1249.26 474.449 1258.84 472.677 1268.11 470.963C1298.22 465.395 1319.97 461.372 1347.37 430.072C1384.29 387.886 1408.39 316.126 1423.31 265.819L1424.31 266.335C1413.9 301.448 1403.63 330.566 1392.9 355.354C1378.94 387.611 1363.86 413.108 1348.08 431.137C1335.35 445.675 1322.92 455.333 1308.96 461.528C1296.18 467.197 1283.25 469.589 1268.27 472.359C1259.01 474.071 1249.44 475.841 1238.64 478.587C1215.42 484.492 1195.13 495.572 1175.5 506.288C1173.98 507.118 1172.46 507.947 1170.95 508.772C1144.44 523.192 1121.96 533.885 1098.4 539.196C1073.13 544.895 1047.84 544.009 1018.81 536.407C982.1 526.792 956.113 502.252 930.981 478.52C902.467 451.594 875.538 426.16 837.204 429.464C812.816 431.565 789.904 441.33 767.161 459.317C735.247 484.557 711.342 522.919 690.251 556.766C669.799 589.587 650.482 620.588 627.658 633.425C605.683 645.785 590.999 641.914 573.996 637.434C560.444 633.861 545.083 629.813 523.356 633.83C506.434 636.959 490.862 646.563 473.714 657.859C468.416 661.349 463.183 664.887 458.121 668.308C438.422 681.622 419.816 694.198 400.425 702.074C378.716 710.892 358.817 712.687 337.803 707.725C309.59 701.063 285.801 680.25 262.794 660.121C231.9 633.093 199.956 605.147 157.42 612.423C152.124 613.33 146.416 615.044 139.97 617.66C99.8134 633.967 61.8268 678.099 27.0665 748.829Z" fill="url(#paint10_linear_1189_14207)"/>
<path d="M29.2353 749.547L28.3186 748.801C62.2347 676.918 99.7023 631.423 139.68 613.578C146.147 610.692 151.878 608.749 157.201 607.639C176.726 603.569 195.816 606.653 215.561 617.064C233.172 626.349 249.781 640.545 265.842 654.273C288.279 673.451 311.48 693.281 338.491 701.043C387.473 715.119 425.798 692.065 470.175 665.372C472.098 664.216 474.034 663.052 475.983 661.882L476.473 661.589C493.309 651.49 509.212 641.952 526.193 638.158C546.601 633.599 561.535 635.065 574.712 636.358C592.508 638.106 607.879 639.613 630.056 624.941C651.162 610.978 669.474 582.092 688.861 551.511C711.048 516.514 736.194 476.848 770.479 451.726C793.679 434.727 817.01 425.886 841.807 424.697C880.728 422.83 908.433 449.069 937.751 476.848C962.486 500.286 988.063 524.521 1022.94 535.365C1083.49 554.195 1123.13 542.914 1175.09 515.51C1178.66 513.63 1182.3 511.67 1185.83 509.774C1203.68 500.168 1222.14 490.234 1242.71 483.868C1251.5 481.146 1259.5 479.012 1267.24 476.948C1298.87 468.514 1321.72 462.42 1349.69 428.549C1385.89 384.715 1409.84 313.145 1424.7 263.123L1425.71 263.641C1415.3 298.664 1405.08 327.793 1394.47 352.69C1380.7 384.994 1365.88 410.866 1350.42 429.587C1322.24 463.724 1299.26 469.851 1267.46 478.331C1259.73 480.392 1251.74 482.524 1242.96 485.241C1222.48 491.582 1204.06 501.494 1186.24 511.08C1182.72 512.976 1179.07 514.937 1175.5 516.819C1141.56 534.718 1112.85 545.764 1080.18 546.09C1062.64 546.265 1043.95 543.347 1022.69 536.738C987.61 525.829 961.944 501.508 937.123 477.989C907.96 450.357 880.411 424.258 841.853 426.107C817.23 427.287 794.057 436.07 771.009 452.958C736.897 477.953 711.818 517.512 689.691 552.415C670.231 583.112 651.85 612.107 630.546 626.201C608.102 641.049 592.593 639.527 574.636 637.765C561.521 636.477 546.657 635.019 526.38 639.548C509.537 643.311 493.696 652.812 476.925 662.871L476.436 663.164C474.486 664.334 472.551 665.498 470.629 666.654C448.386 680.033 427.378 692.67 406.095 699.999C382.428 708.149 360.874 708.919 338.265 702.421C311.06 694.603 287.775 674.7 265.256 655.452C231.926 626.964 200.443 600.056 157.375 609.032C152.114 610.129 146.441 612.053 140.032 614.913C100.295 632.65 63.0178 677.948 29.2353 749.547Z" fill="url(#paint11_linear_1189_14207)"/>
<path d="M31.4042 750.264L30.4769 749.54C63.4143 676.778 100.167 630.113 139.713 610.841C146.132 607.713 151.828 605.558 157.126 604.252C176.944 599.369 196.418 601.984 216.664 612.251C234.746 621.421 251.2 635.189 268.62 649.766C290.473 668.051 313.069 686.96 338.993 695.75C388.815 712.643 428.341 694.558 478.741 667.165C480.563 666.175 482.372 665.185 484.17 664.201C499.517 655.801 514.012 647.867 529.186 643.883C547.39 639.103 561.35 638.297 573.668 637.585C593.791 636.423 609.686 635.505 632.885 617.755C652.436 602.795 669.703 575.926 687.985 547.479C711.265 511.253 737.651 470.193 774.358 445.342C796.963 430.039 820.553 422.187 846.477 421.337C885.858 420.057 914.288 447.372 944.411 476.3C968.688 499.614 993.792 523.722 1026.85 535.706C1082.59 555.908 1122.58 552.728 1179.66 523.549C1185.47 520.582 1191.4 517.392 1197.14 514.308C1212.94 505.818 1229.28 497.038 1246.98 490.533C1253.38 488.182 1259.39 486.1 1265.2 484.087C1298.87 472.427 1323.2 464.002 1352.01 427.024C1387.49 381.497 1411.29 310.139 1426.1 260.426L1427.1 260.944C1412.25 310.779 1388.4 382.318 1352.77 428.034C1323.75 465.271 1299.31 473.736 1265.48 485.451C1259.67 487.463 1253.67 489.543 1247.28 491.891C1229.63 498.375 1213.33 507.138 1197.55 515.614C1191.81 518.7 1185.87 521.892 1180.06 524.865C1151.25 539.588 1128.2 547.118 1105.31 549.28C1080.93 551.584 1055.92 547.702 1026.57 537.065C993.319 525.013 968.133 500.826 943.777 477.436C913.808 448.655 885.49 421.474 846.51 422.747C820.753 423.591 797.314 431.392 774.857 446.596C738.34 471.318 712.026 512.264 688.81 548.39C670.468 576.932 653.143 603.891 633.432 618.973C610.005 636.898 593.993 637.823 573.722 638.994C561.443 639.703 547.526 640.507 529.404 645.265C514.334 649.221 499.886 657.129 484.59 665.501C482.791 666.486 480.981 667.477 479.158 668.468C442.549 688.365 411.643 703.368 378.361 703.701C365.646 703.828 352.59 701.814 338.729 697.114C312.638 688.268 289.968 669.298 268.044 650.952C233.578 622.111 201.022 594.867 157.331 605.638C152.094 606.928 146.455 609.062 140.094 612.163C100.782 631.322 64.214 677.784 31.4042 750.264Z" fill="url(#paint12_linear_1189_14207)"/>
<path d="M33.5727 750.981L32.6359 750.279C64.5999 676.626 100.637 628.792 139.747 608.106C146.107 604.742 151.767 602.374 157.052 600.867C177.488 595.037 196.836 597.126 217.938 607.441C236.554 616.54 253.663 630.592 271.777 645.469C292.92 662.834 314.783 680.79 339.494 690.458C388.422 709.6 428.612 698.352 481.497 672.451C485.286 670.596 489.055 668.695 492.699 666.858C506.233 660.034 519.016 653.588 532.179 649.609C546.966 645.139 559.074 642.732 569.757 640.609C593.484 635.893 610.628 632.485 635.715 610.571C653.618 594.933 669.704 570.133 686.734 543.878C711.168 506.209 738.861 463.514 778.237 438.961C802.072 424.099 825.924 417.235 851.166 417.98C890.733 419.146 919.802 446.945 950.578 476.378C974.501 499.255 999.238 522.913 1030.77 536.05C1087.97 559.881 1129.56 558.673 1184.22 531.592C1192.53 527.476 1200.64 523.062 1209.21 518.389C1222.66 511.063 1236.57 503.487 1251.26 497.201C1254.76 495.704 1258.15 494.269 1261.46 492.872C1297.93 477.474 1324.28 466.349 1354.33 425.503C1389.12 378.225 1412.74 307.11 1427.49 257.731L1428.49 258.251C1413.71 307.741 1390.03 379.026 1355.11 426.484C1324.87 467.584 1298.42 478.754 1261.8 494.215C1258.49 495.611 1255.09 497.045 1251.6 498.542C1236.95 504.811 1223.06 512.376 1209.63 519.691C1201.05 524.369 1192.93 528.787 1184.61 532.912C1129.69 560.119 1087.91 561.333 1030.45 537.393C998.748 524.186 973.939 500.46 949.946 477.515C919.311 448.218 890.375 420.546 851.148 419.389C826.082 418.65 802.384 425.469 778.703 440.236C739.535 464.659 711.921 507.233 687.556 544.794C670.476 571.127 654.343 595.999 636.316 611.746C611.031 633.832 593.788 637.259 569.924 642.003C559.26 644.122 547.173 646.525 532.427 650.983C519.338 654.941 506.588 661.369 493.091 668.174C489.444 670.013 485.672 671.915 481.879 673.773C460.841 684.076 435.92 695.185 410.595 699.467C385.901 703.64 363.212 701.208 339.19 691.809C314.338 682.085 292.412 664.077 271.208 646.662C235.462 617.304 201.699 589.575 157.285 602.245C152.06 603.736 146.457 606.08 140.154 609.414C101.274 629.979 65.4145 677.609 33.5727 750.981Z" fill="url(#paint13_linear_1189_14207)"/>
<path d="M35.7411 751.698L34.7946 751.019C65.789 676.461 101.111 627.458 139.781 605.371C146.071 601.778 151.696 599.198 156.976 597.482C202.67 582.638 237.985 611.194 275.371 641.427C295.659 657.833 316.636 674.797 339.994 685.166C392.491 708.469 435.631 699.05 484.254 677.736C490.43 675.03 496.477 672.179 502.325 669.422C513.631 664.092 524.31 659.058 535.172 655.334C544.309 652.202 552.591 649.6 559.899 647.304C591.142 637.488 609.999 631.564 638.547 603.388C654.693 587.451 669.442 564.806 685.056 540.83C710.707 501.446 739.779 456.806 782.115 432.58C806.287 418.747 830.405 412.874 855.845 414.62C895.86 417.369 925.726 446.105 957.345 476.527C980.726 499.023 1004.9 522.285 1034.69 536.393C1093.7 564.347 1135.47 565.224 1188.79 539.631C1199.97 534.266 1210.82 528.17 1222.32 521.715C1233.03 515.702 1244.11 509.483 1255.53 503.868C1297.25 483.371 1324.8 469.831 1356.66 423.978C1390.76 374.883 1414.21 304.045 1428.89 255.033L1429.89 255.554C1415.19 304.669 1391.68 375.664 1357.45 424.93C1342.68 446.2 1327.68 462 1310.26 474.655C1293.93 486.508 1276.32 495.165 1255.92 505.189C1244.51 510.793 1233.45 517.005 1222.75 523.012C1211.24 529.474 1200.37 535.578 1189.16 540.956C1161.33 554.319 1136.87 560.179 1112.21 559.401C1088.74 558.66 1063.99 551.77 1034.33 537.718C1004.39 523.541 980.153 500.217 956.71 477.662C925.225 447.368 895.486 418.755 855.794 416.028C830.522 414.293 806.565 420.129 782.55 433.872C740.44 457.969 711.452 502.478 685.877 541.748C670.223 565.783 655.437 588.486 639.198 604.515C610.472 632.866 591.533 638.817 560.155 648.675C552.853 650.969 544.576 653.569 535.45 656.698C524.634 660.406 513.977 665.429 502.694 670.748C496.84 673.508 490.788 676.361 484.6 679.073C456.347 691.457 433.114 697.996 411.483 699.651C387.26 701.504 363.764 697.203 339.654 686.5C316.179 676.08 295.148 659.073 274.809 642.625C237.621 612.552 202.496 584.148 157.241 598.85C152.019 600.546 146.45 603.101 140.215 606.663C101.769 628.624 66.6187 677.421 35.7411 751.698Z" fill="url(#paint14_linear_1189_14207)"/>
<path d="M37.9093 752.415L36.9536 751.758C66.9825 676.283 101.59 626.111 139.814 602.637C146.026 598.822 151.615 596.029 156.902 594.097C203.58 577.044 240.446 606.51 279.476 637.706C298.737 653.1 318.653 669.019 340.495 679.875C388.079 703.529 431.897 704.469 487.011 683.024C496.157 679.465 504.925 675.51 513.404 671.684C521.945 667.83 530.013 664.191 538.166 661.061C583.623 643.61 606.439 634.851 641.381 596.206C655.646 580.429 668.88 560.06 682.892 538.497C709.824 497.047 740.35 450.067 785.994 426.2C810.519 413.374 834.899 408.488 860.525 411.264C901.105 415.657 931.863 445.465 964.426 477.024C987.145 499.041 1010.64 521.809 1038.6 536.739C1099.1 569.034 1141.04 571.997 1193.35 547.673C1207.92 540.903 1221.97 532.612 1236.85 523.835C1244.3 519.435 1252.02 514.886 1259.81 510.539C1298.03 489.216 1327.52 470.416 1358.98 422.457C1392.44 371.458 1415.69 300.943 1430.28 252.338L1431.28 252.86C1416.67 301.56 1393.36 372.219 1359.8 423.379C1328.18 471.568 1298.59 490.438 1260.23 511.837C1252.45 516.178 1244.75 520.724 1237.29 525.121C1222.39 533.91 1208.32 542.212 1193.72 549.002C1165.93 561.923 1141.13 566.838 1115.65 564.476C1092.27 562.307 1068.38 554.155 1038.2 538.044C1010.11 523.047 986.561 500.226 963.788 478.156C931.353 446.72 900.715 417.029 860.442 412.669C834.985 409.913 810.765 414.768 786.397 427.51C741 451.249 710.565 498.088 683.713 539.414C669.672 561.023 656.41 581.434 642.078 597.286C606.964 636.122 584.075 644.909 538.474 662.415C530.345 665.536 522.289 669.17 513.76 673.018C505.27 676.848 496.491 680.809 487.323 684.376C431.964 705.917 387.94 704.964 340.118 681.194C318.182 670.291 298.222 654.337 278.919 638.909C240.095 607.878 203.425 578.568 157.197 595.456C151.968 597.367 146.433 600.133 140.276 603.915C102.268 627.255 67.8275 677.218 37.9093 752.415Z" fill="url(#paint15_linear_1189_14207)"/>
<path d="M40.077 753.131L39.1126 752.497C68.1792 676.09 102.072 624.75 139.849 599.903C145.971 595.875 151.525 592.87 156.827 590.713C204.643 571.269 243.278 601.929 284.181 634.389C302.212 648.698 320.857 663.495 340.994 674.585C391.04 702.147 436.923 706.381 489.767 688.312C502.731 683.879 514.802 678.477 526.476 673.253C531.538 670.988 536.319 668.849 541.159 666.789C589.022 646.413 611.175 629.698 644.217 589.025C656.461 573.952 667.983 556.04 680.182 537.077C694.665 514.561 709.642 491.278 727.288 470.497C747.333 446.889 767.805 430.313 789.872 419.821C814.77 407.982 839.41 404.085 865.204 407.908C906.504 414.027 938.273 445.084 971.908 477.964C993.812 499.376 1016.46 521.518 1042.52 537.086C1094.73 568.277 1138.94 582.273 1197.92 555.715C1216.63 547.29 1234.5 535.951 1253.43 523.948C1256.91 521.739 1260.51 519.455 1264.08 517.211C1303.03 492.765 1331.42 469.175 1361.3 420.936C1386.3 380.587 1408.66 326.157 1431.67 249.643L1432.67 250.166C1409.62 326.817 1387.21 381.364 1362.14 421.828C1332.13 470.271 1303.63 493.951 1264.55 518.484C1260.98 520.726 1257.38 523.01 1253.9 525.218C1234.95 537.241 1217.04 548.597 1198.27 557.05C1177.79 566.272 1158.76 570.861 1139.71 571.051C1132.86 571.12 1126.01 570.619 1119.09 569.562C1096.05 566.042 1072.3 556.422 1042.08 538.369C1015.91 522.738 993.217 500.551 971.267 479.093C937.753 446.331 906.098 415.386 865.089 409.309C839.465 405.513 814.982 409.385 790.244 421.147C741.152 444.489 709.199 494.163 681.007 537.99C668.788 556.985 657.246 574.927 644.957 590.055C627.471 611.579 613.496 625.65 598.227 637.105C583.375 648.248 566.409 657.526 541.498 668.131C536.665 670.188 531.888 672.326 526.83 674.589C515.137 679.821 503.047 685.232 490.045 689.677C462.78 699 437.668 702.366 413.272 699.969C389.552 697.638 365.775 689.761 340.582 675.886C320.371 664.755 301.691 649.931 283.627 635.595C242.938 603.305 204.507 572.806 157.152 592.062C151.906 594.194 146.406 597.172 140.336 601.164C102.771 625.872 69.0387 677.002 40.077 753.131Z" fill="url(#paint16_linear_1189_14207)"/>
<path d="M42.2451 753.848L41.2723 753.237C69.3797 675.884 102.557 623.374 139.884 597.169C145.905 592.941 151.424 589.722 156.753 587.33C179.185 577.262 200.989 577.575 225.373 588.315C246.995 597.839 267.688 614.234 289.597 631.592C306.157 644.712 323.281 658.279 341.494 669.296C394.506 701.364 441.086 708.861 492.524 693.601C510.593 688.24 526.737 680.676 542.35 673.362L544.154 672.516C591.242 650.469 614.854 625.711 647.055 581.843C657.122 568.129 666.713 552.925 676.868 536.83C692.089 512.703 707.829 487.755 726.558 465.793C747.822 440.86 769.801 423.736 793.752 413.442C819.043 402.572 843.947 399.664 869.885 404.552C912.105 412.509 945.044 445.044 979.916 479.489C1000.81 500.124 1022.41 521.463 1046.44 537.435C1097.9 571.635 1144.12 589.2 1202.48 563.757C1224.53 554.146 1245.36 540.013 1268.36 523.884C1309.49 495.041 1337.09 464.774 1363.63 419.413C1388.19 377.427 1410.25 322.625 1433.07 246.946L1434.07 247.47C1411.22 323.273 1389.11 378.183 1364.48 420.275C1350.44 444.277 1335.92 464.221 1320.08 481.246C1305.53 496.892 1289.25 510.835 1268.87 525.128C1245.83 541.288 1224.95 555.449 1202.83 565.095C1184.47 573.097 1166.7 577.159 1149.07 577.336C1140.2 577.424 1131.37 576.528 1122.52 574.654C1099.74 569.835 1076.13 558.743 1045.96 538.691C1021.84 522.663 1000.2 501.286 979.271 480.613C944.513 446.281 911.682 413.853 869.737 405.947C843.968 401.09 819.223 403.981 794.092 414.782C740.822 437.679 707.287 490.834 677.7 537.731C667.532 553.849 657.928 569.071 647.834 582.824C615.514 626.853 591.811 651.703 544.521 673.845L542.718 674.69C527.075 682.019 510.899 689.598 492.768 694.977C476.051 699.936 459.911 702.483 444.018 702.642C434.001 702.742 424.085 701.893 414.176 700.1C390.827 695.876 366.906 686.219 341.048 670.577C322.78 659.526 305.629 645.938 289.044 632.798C246.219 598.869 205.769 566.822 157.108 588.665C151.833 591.033 146.367 594.221 140.397 598.413C103.275 624.475 70.2522 676.77 42.2451 753.848Z" fill="url(#paint17_linear_1189_14207)"/>
<path d="M44.4125 754.565L43.4317 753.977C70.5815 675.663 103.045 621.986 139.918 594.435C145.83 590.018 151.312 586.588 156.679 583.948C179.82 572.562 202.499 572.461 228.051 583.631C250.732 593.545 272.654 610.996 295.863 629.473C310.661 641.253 325.963 653.434 341.992 664.007C398.578 701.334 444.421 711.766 495.28 698.89C515.354 693.807 532.764 685.601 547.147 678.245C594.631 653.959 619.685 619.994 649.895 574.662C657.611 563.083 665.037 550.944 672.9 538.092C688.893 511.952 705.43 484.921 725.323 461.5C747.885 434.937 771.537 417.131 797.63 407.063C823.339 397.144 848.504 395.224 874.564 401.196C894.064 405.664 913.681 415.702 934.537 431.882C953.158 446.329 971.192 464.367 988.633 481.813C1008.25 501.431 1028.53 521.719 1050.36 537.783C1102.16 575.911 1148.63 596.286 1207.05 571.797C1231.52 561.401 1253.94 545.116 1272.64 530.557C1310.36 501.181 1339.14 466.433 1365.95 417.891C1389.79 374.727 1412.2 317.928 1434.46 244.25L1435.46 244.775C1413.17 318.563 1390.71 375.462 1366.82 418.722C1352.95 443.842 1338.73 465.015 1323.35 483.45C1308.52 501.233 1292.11 517.038 1273.19 531.77C1254.44 546.369 1231.96 562.701 1207.38 573.14C1179.56 584.805 1152.91 586.951 1125.92 579.701C1103.27 573.616 1079.8 561.067 1049.83 539.011C1027.94 522.897 1007.63 502.58 987.982 482.931C951.757 446.698 917.541 412.473 874.384 402.585C848.492 396.652 823.486 398.56 797.939 408.417C739.925 430.8 706.279 485.794 673.742 538.978C665.872 551.841 658.439 563.991 650.707 575.592C634.394 600.072 620.316 619.799 604.638 636.505C587.581 654.68 569.439 668.361 547.543 679.559C533.115 686.939 515.648 695.171 495.489 700.275C468.124 707.203 441.824 707.185 415.086 700.216C391.863 694.165 368.485 683.059 341.512 665.267C325.445 654.668 310.124 642.472 295.307 630.677C250.022 594.627 207.247 560.578 157.062 585.269C151.75 587.882 146.318 591.282 140.456 595.662C103.781 623.063 71.4678 676.526 44.4125 754.565Z" fill="url(#paint18_linear_1189_14207)"/>
<path d="M46.5803 755.282L45.5914 754.716C71.786 675.428 103.534 620.582 139.954 591.701C145.742 587.111 151.188 583.469 156.604 580.565C180.575 567.714 204.28 567.229 231.204 579.042C255.121 589.534 278.458 608.343 303.166 628.257C315.847 638.477 328.961 649.046 342.491 658.718C384.313 688.617 435.499 717.399 498.036 704.18C515.122 700.569 532.165 693.959 550.142 683.974C594.739 659.201 620.795 620.065 652.737 567.48C657.914 558.956 663.166 549.984 668.245 541.307C685.035 512.622 702.397 482.96 723.532 457.722C747.465 429.143 772.971 410.486 801.509 400.685C827.66 391.705 853.087 390.773 879.244 397.84C899.448 403.298 919.894 414.461 941.75 431.967C961.24 447.576 980.104 466.739 998.347 485.272C1016.32 503.527 1034.9 522.404 1054.28 538.133C1106.33 580.39 1153.01 603.655 1211.61 579.837C1232.18 571.4 1252.93 557.861 1276.91 537.231C1312 507.047 1341.03 468.642 1368.28 416.368C1391.78 371.266 1413.89 314.084 1435.86 241.553L1436.86 242.079C1414.86 314.707 1392.72 371.979 1369.17 417.167C1341.84 469.597 1312.72 508.124 1277.51 538.411C1253.44 559.114 1232.61 572.705 1211.94 581.184C1196.06 587.637 1181.05 590.66 1166.58 590.805C1127.29 591.197 1091.94 570.362 1053.71 539.33C1034.29 523.562 1015.68 504.662 997.689 486.384C961.358 449.477 923.791 411.313 879.032 399.221C853.042 392.199 827.775 393.124 801.787 402.049C738.369 423.829 703.155 483.989 669.101 542.168C664.019 550.85 658.763 559.828 653.581 568.361C638.154 593.757 624.063 616.392 607.822 636.204C590.095 657.829 571.902 673.421 550.567 685.272C532.51 695.302 515.385 701.942 498.213 705.571C470.642 711.4 443.751 709.681 416.006 700.317C393.3 692.654 369.778 679.829 341.979 659.955C328.424 650.265 315.299 639.686 302.605 629.456C254.462 590.655 208.99 554.006 157.017 581.87C151.653 584.746 146.255 588.356 140.515 592.908C104.289 621.637 72.685 676.267 46.5803 755.282Z" fill="url(#paint19_linear_1189_14207)"/>
<path d="M48.7477 755.998L47.7515 755.455C73.0322 675.05 104.066 619.035 139.99 588.968C145.454 584.365 151.019 580.401 156.529 577.184C181.509 562.727 206.444 561.932 235.005 574.683C260.389 586.016 285.374 606.575 311.827 628.343C321.925 636.654 332.369 645.247 342.988 653.43C388.786 688.727 439.6 719.947 500.791 709.471C518.992 706.355 536.114 699.889 553.137 689.703C599.046 662.063 626.507 612.631 655.58 560.297C657.971 555.992 660.361 551.658 662.759 547.308C680.378 515.35 698.598 482.303 721.061 454.757C746.438 423.637 774.021 403.865 805.386 394.309C832.197 386.255 857.886 386.314 883.924 394.487C931.1 409.076 970.948 450.402 1009.48 490.367C1025.29 506.76 1041.63 523.71 1058.19 538.485C1103.26 578.708 1153.6 612.53 1216.18 587.88C1237.64 579.38 1258.91 564.997 1281.19 543.908C1313.64 513.197 1342.88 470.98 1370.6 414.846C1394.02 367.017 1415.82 309.449 1437.25 238.857L1438.25 239.384C1416.79 310.061 1394.96 367.707 1371.51 415.614C1343.71 471.9 1314.38 514.239 1281.82 545.053C1259.45 566.234 1238.08 580.685 1216.49 589.231C1188.15 600.395 1160.75 600.633 1132.74 589.959C1110.08 581.331 1086.91 565.815 1057.59 539.65C1041 524.845 1024.64 507.879 1008.82 491.472C970.375 451.603 930.623 410.377 883.679 395.859C857.805 387.737 832.277 387.681 805.633 395.684C735.987 416.902 699.204 483.619 663.632 548.139C661.234 552.489 658.843 556.825 656.451 561.131C627.293 613.617 599.753 663.192 553.589 690.986C536.467 701.232 519.244 707.736 500.935 710.87C439.42 721.398 388.409 690.071 342.444 654.645C331.812 646.451 321.362 637.852 311.256 629.536C259.759 587.16 211.118 547.136 156.97 578.475C151.511 581.661 145.994 585.592 140.574 590.157C104.838 620.067 73.9431 675.864 48.7477 755.998Z" fill="url(#paint20_linear_1189_14207)"/>
<path d="M50.9147 756.715L49.9116 756.195C74.1975 674.917 104.516 617.734 140.025 586.236C155.412 572.587 170.669 564.59 186.666 561.787C201.044 559.267 215.78 561.024 231.718 567.155C261.439 578.587 290.833 603.565 321.952 630.01C373.875 674.134 432.727 724.143 503.546 714.763C581.338 704.457 618.052 632.377 656.921 556.064C693.95 483.366 732.239 408.194 809.264 387.933C897.363 364.758 961.211 432.656 1022.96 498.317C1084.56 563.826 1142.75 625.705 1220.74 595.921C1266.91 578.29 1310.88 531.325 1351.43 456.331C1382.11 399.606 1411.45 325.53 1438.64 236.16L1439.64 236.689C1412.42 326.161 1383.04 400.336 1352.31 457.15C1333.12 492.639 1312.99 522.161 1292.47 544.897C1269.54 570.31 1245.51 587.933 1221.04 597.275C1202.15 604.492 1183.95 606.613 1165.42 603.763C1148.87 601.216 1132.4 594.724 1115.07 583.915C1082.85 563.822 1053.43 532.534 1022.28 499.409C960.729 433.955 897.08 366.273 809.481 389.315C732.89 409.462 694.725 484.39 657.817 556.85C639.076 593.644 619.697 631.691 595.753 660.805C582.866 676.476 569.667 688.468 555.401 697.47C539.416 707.556 522.492 713.671 503.658 716.166C471.817 720.383 439.79 713.186 405.744 694.162C375.741 677.398 348.1 653.908 321.368 631.192C258.31 577.607 203.85 531.327 140.631 587.405C105.305 618.741 75.12 675.705 50.9147 756.715Z" fill="url(#paint21_linear_1189_14207)"/>
</g>
<defs>
<filter id="filter0_f_1189_14207" x="-19.7163" y="0.000782013" width="1483.66" height="1001.23" filterUnits="userSpaceOnUse" color-interpolation-filters="sRGB">
<feFlood flood-opacity="0" result="BackgroundImageFix"/>
<feBlend mode="normal" in="SourceGraphic" in2="BackgroundImageFix" result="shape"/>
<feGaussianBlur stdDeviation="12.15" result="effect1_foregroundBlur_1189_14207"/>
</filter>
<linearGradient id="paint0_linear_1189_14207" x1="2.26802" y1="507.775" x2="1442.2" y2="493.457" gradientUnits="userSpaceOnUse">
<stop/>
<stop offset="0.4916" stop-color="white"/>
<stop offset="1"/>
</linearGradient>
<linearGradient id="paint1_linear_1189_14207" x1="2.26796" y1="507.776" x2="1442.2" y2="493.458" gradientUnits="userSpaceOnUse">
<stop/>
<stop offset="0.4916" stop-color="white"/>
<stop offset="1"/>
</linearGradient>
<linearGradient id="paint2_linear_1189_14207" x1="2.26804" y1="507.776" x2="1442.2" y2="493.459" gradientUnits="userSpaceOnUse">
<stop/>
<stop offset="0.4916" stop-color="white"/>
<stop offset="1"/>
</linearGradient>
<linearGradient id="paint3_linear_1189_14207" x1="2.26814" y1="507.775" x2="1442.2" y2="493.458" gradientUnits="userSpaceOnUse">
<stop/>
<stop offset="0.4916" stop-color="white"/>
<stop offset="1"/>
</linearGradient>
<linearGradient id="paint4_linear_1189_14207" x1="2.26803" y1="507.776" x2="1442.2" y2="493.458" gradientUnits="userSpaceOnUse">
<stop/>
<stop offset="0.4916" stop-color="white"/>
<stop offset="1"/>
</linearGradient>
<linearGradient id="paint5_linear_1189_14207" x1="2.26796" y1="507.776" x2="1442.2" y2="493.458" gradientUnits="userSpaceOnUse">
<stop/>
<stop offset="0.4916" stop-color="white"/>
<stop offset="1"/>
</linearGradient>
<linearGradient id="paint6_linear_1189_14207" x1="2.26786" y1="507.777" x2="1442.2" y2="493.459" gradientUnits="userSpaceOnUse">
<stop/>
<stop offset="0.4916" stop-color="white"/>
<stop offset="1"/>
</linearGradient>
<linearGradient id="paint7_linear_1189_14207" x1="2.26759" y1="507.776" x2="1442.2" y2="493.458" gradientUnits="userSpaceOnUse">
<stop/>
<stop offset="0.4916" stop-color="white"/>
<stop offset="1"/>
</linearGradient>
<linearGradient id="paint8_linear_1189_14207" x1="2.26785" y1="507.777" x2="1442.2" y2="493.459" gradientUnits="userSpaceOnUse">
<stop/>
<stop offset="0.4916" stop-color="white"/>
<stop offset="1"/>
</linearGradient>
<linearGradient id="paint9_linear_1189_14207" x1="2.2681" y1="507.776" x2="1442.2" y2="493.458" gradientUnits="userSpaceOnUse">
<stop/>
<stop offset="0.4916" stop-color="white"/>
<stop offset="1"/>
</linearGradient>
<linearGradient id="paint10_linear_1189_14207" x1="2.268" y1="507.777" x2="1442.2" y2="493.459" gradientUnits="userSpaceOnUse">
<stop/>
<stop offset="0.4916" stop-color="white"/>
<stop offset="1"/>
</linearGradient>
<linearGradient id="paint11_linear_1189_14207" x1="2.2677" y1="507.776" x2="1442.2" y2="493.458" gradientUnits="userSpaceOnUse">
<stop/>
<stop offset="0.4916" stop-color="white"/>
<stop offset="1"/>
</linearGradient>
<linearGradient id="paint12_linear_1189_14207" x1="2.26793" y1="507.777" x2="1442.2" y2="493.459" gradientUnits="userSpaceOnUse">
<stop/>
<stop offset="0.4916" stop-color="white"/>
<stop offset="1"/>
</linearGradient>
<linearGradient id="paint13_linear_1189_14207" x1="2.26763" y1="507.776" x2="1442.2" y2="493.458" gradientUnits="userSpaceOnUse">
<stop/>
<stop offset="0.4916" stop-color="white"/>
<stop offset="1"/>
</linearGradient>
<linearGradient id="paint14_linear_1189_14207" x1="2.26771" y1="507.777" x2="1442.2" y2="493.459" gradientUnits="userSpaceOnUse">
<stop/>
<stop offset="0.4916" stop-color="white"/>
<stop offset="1"/>
</linearGradient>
<linearGradient id="paint15_linear_1189_14207" x1="2.26792" y1="507.776" x2="1442.2" y2="493.458" gradientUnits="userSpaceOnUse">
<stop/>
<stop offset="0.4916" stop-color="white"/>
<stop offset="1"/>
</linearGradient>
<linearGradient id="paint16_linear_1189_14207" x1="2.26795" y1="507.775" x2="1442.2" y2="493.457" gradientUnits="userSpaceOnUse">
<stop/>
<stop offset="0.4916" stop-color="white"/>
<stop offset="1"/>
</linearGradient>
<linearGradient id="paint17_linear_1189_14207" x1="2.26766" y1="507.775" x2="1442.2" y2="493.458" gradientUnits="userSpaceOnUse">
<stop/>
<stop offset="0.4916" stop-color="white"/>
<stop offset="1"/>
</linearGradient>
<linearGradient id="paint18_linear_1189_14207" x1="2.26788" y1="507.775" x2="1442.2" y2="493.458" gradientUnits="userSpaceOnUse">
<stop/>
<stop offset="0.4916" stop-color="white"/>
<stop offset="1"/>
</linearGradient>
<linearGradient id="paint19_linear_1189_14207" x1="2.26774" y1="507.777" x2="1442.2" y2="493.459" gradientUnits="userSpaceOnUse">
<stop/>
<stop offset="0.4916" stop-color="white"/>
<stop offset="1"/>
</linearGradient>
<linearGradient id="paint20_linear_1189_14207" x1="2.26774" y1="507.776" x2="1442.2" y2="493.458" gradientUnits="userSpaceOnUse">
<stop/>
<stop offset="0.4916" stop-color="white"/>
<stop offset="1"/>
</linearGradient>
<linearGradient id="paint21_linear_1189_14207" x1="47.398" y1="503.372" x2="1442.16" y2="489.504" gradientUnits="userSpaceOnUse">
<stop/>
<stop offset="0.4916" stop-color="white"/>
<stop offset="1"/>
</linearGradient>
</defs>
</svg>
