<svg width="434" height="53" viewBox="0 0 434 53" fill="#ffffff" xmlns="http://www.w3.org/2000/svg">
<path d="M434 0.00585938C430.69 0.0683153 427.42 0.749718 424.359 2.01758C421.144 3.34933 418.222 5.30097 415.762 7.76172C413.301 10.2223 411.349 13.1435 410.018 16.3584C408.686 19.5735 408 23.02 408 26.5C408 29.9799 408.686 33.4256 410.018 36.6406C411.349 39.8558 413.301 42.7775 415.762 45.2383C418.222 47.6989 421.143 49.6507 424.358 50.9824C427.419 52.2504 430.69 52.9307 434 52.9932V53H0V52.9932C3.30962 52.9307 6.57965 52.2503 9.64062 50.9824C12.8558 49.6507 15.7775 47.699 18.2383 45.2383C20.699 42.7775 22.6507 39.8558 23.9824 36.6406C25.3141 33.4256 26 29.9799 26 26.5C26 23.0201 25.3141 19.5744 23.9824 16.3594C22.6507 13.1442 20.699 10.2225 18.2383 7.76172C15.7775 5.30097 12.8558 3.34933 9.64062 2.01758C6.57964 0.749719 3.30963 0.0683154 0 0.00585938V0H434V0.00585938Z" fill="#ffffff"/>
</svg>
