<svg width="32" height="32" viewBox="0 0 32 32" fill="none" xmlns="http://www.w3.org/2000/svg">
<path d="M12.1843 9.53525C11.6342 9.48525 11.1478 9.89059 11.0978 10.4406C11.0478 10.9906 11.4532 11.477 12.0032 11.527L12.1843 9.53525ZM20.6875 11.3124L21.6834 11.2219C21.6397 10.7411 21.2588 10.3602 20.7781 10.3165L20.6875 11.3124ZM20.4729 19.9967C20.5229 20.5468 21.0093 20.9521 21.5593 20.9021C22.1093 20.8521 22.5147 20.3657 22.4647 19.8157L20.4729 19.9967ZM10.6054 19.9804C10.2148 20.3709 10.2148 21.0041 10.6054 21.3946C10.9959 21.7851 11.6291 21.7851 12.0196 21.3946L10.6054 19.9804ZM12.0032 11.527L20.597 12.3083L20.7781 10.3165L12.1843 9.53525L12.0032 11.527ZM19.6916 11.4029L20.4729 19.9967L22.4647 19.8157L21.6834 11.2219L19.6916 11.4029ZM19.9804 10.6053L10.6054 19.9804L12.0196 21.3946L21.3946 12.0195L19.9804 10.6053ZM30 16C30 23.732 23.732 30 16 30V32C24.8366 32 32 24.8366 32 16H30ZM16 30C8.26801 30 2 23.732 2 16H0C0 24.8366 7.16344 32 16 32V30ZM2 16C2 8.26801 8.26801 2 16 2V0C7.16344 0 0 7.16344 0 16H2ZM16 2C23.732 2 30 8.26801 30 16H32C32 7.16344 24.8366 0 16 0V2Z" fill="#010101"/>
</svg>
