<svg width="33" height="33" viewBox="0 0 33 33" fill="none" xmlns="http://www.w3.org/2000/svg">
<path fill-rule="evenodd" clip-rule="evenodd" d="M29.3911 16.5965C29.3911 23.9603 23.5158 29.9299 16.2683 29.9299C9.02078 29.9299 3.14551 23.9603 3.14551 16.5965C3.14551 9.23272 9.02078 3.26318 16.2683 3.26318C23.5158 3.26318 29.3911 9.23272 29.3911 16.5965ZM16.7385 13.1065C15.4621 13.6459 12.9112 14.7623 9.08562 16.4558C8.4644 16.7068 8.13899 16.9523 8.10936 17.1924C8.0593 17.5982 8.55941 17.758 9.24044 17.9756C9.33308 18.0052 9.42906 18.0358 9.52747 18.0683C10.1975 18.2896 11.0988 18.5485 11.5673 18.5588C11.9924 18.5681 12.4667 18.3901 12.9905 18.0247C16.5648 15.5732 18.4099 14.3341 18.5257 14.3074C18.6075 14.2885 18.7207 14.2648 18.7974 14.3341C18.8742 14.4034 18.8666 14.5347 18.8585 14.5699C18.8089 14.7845 16.8458 16.6389 15.8299 17.5985C15.5132 17.8977 15.2885 18.1099 15.2426 18.1584C15.1397 18.2669 15.0349 18.3696 14.9341 18.4683C14.3116 19.078 13.8448 19.5352 14.9599 20.2819C15.4958 20.6407 15.9246 20.9374 16.3524 21.2334C16.8196 21.5566 17.2856 21.8791 17.8885 22.2806C18.0421 22.3829 18.1888 22.4892 18.3317 22.5927C18.8754 22.9865 19.3639 23.3403 19.9674 23.2839C20.318 23.2511 20.6802 22.9161 20.8642 21.9169C21.2989 19.5556 22.1534 14.4393 22.3509 12.3309C22.3682 12.1462 22.3465 11.9098 22.329 11.8061C22.3115 11.7023 22.275 11.5544 22.1422 11.445C21.985 11.3153 21.7423 11.288 21.6337 11.29C21.1401 11.2988 20.3829 11.5663 16.7385 13.1065Z" fill="#FEFEFE"/>
</svg>
