<svg width="32" height="33" viewBox="0 0 32 33" fill="none" xmlns="http://www.w3.org/2000/svg">
<path fill-rule="evenodd" clip-rule="evenodd" d="M25.977 7.81629C27.1057 8.12437 27.9985 9.03153 28.3017 10.1783C28.8576 12.2664 28.8745 16.5968 28.8745 16.5968C28.8745 16.5968 28.8745 20.9442 28.3186 23.0153C28.0154 24.162 27.1225 25.0692 25.9939 25.3773C23.9555 25.9421 15.7517 25.9421 15.7517 25.9421C15.7517 25.9421 7.54785 25.9421 5.50952 25.3773C4.38086 25.0692 3.48804 24.162 3.18481 23.0153C2.62891 20.9271 2.62891 16.5968 2.62891 16.5968C2.62891 16.5968 2.62891 12.2664 3.16797 10.1954C3.47119 9.04864 4.36401 8.1415 5.49267 7.83341C7.531 7.26858 15.7348 7.25146 15.7348 7.25146C15.7348 7.25146 23.9387 7.25146 25.977 7.81629ZM19.9294 16.5968L13.1238 20.6019V12.5916L19.9294 16.5968Z" fill="#FEFEFE"/>
</svg>
