<svg width="32" height="33" viewBox="0 0 32 33" fill="none" xmlns="http://www.w3.org/2000/svg">
<path fill-rule="evenodd" clip-rule="evenodd" d="M16.2568 4.59668C13.0491 4.59668 12.6475 4.61028 11.3877 4.66868C10.1303 4.72708 9.27128 4.93028 8.52013 5.22708C7.73276 5.52788 7.01862 5.99988 6.42809 6.61108C5.82751 7.21039 5.36267 7.93548 5.06595 8.73588C4.77541 9.49908 4.57463 10.3727 4.51715 11.6503C4.46046 12.9295 4.44629 13.3367 4.44629 16.5967C4.44629 19.8567 4.45967 20.2639 4.51715 21.5439C4.57463 22.8215 4.77462 23.6943 5.06673 24.4575C5.36278 25.2575 5.82733 25.9831 6.42888 26.5831C7.01874 27.1933 7.73237 27.6656 8.52013 27.9671C9.27128 28.2631 10.1303 28.4663 11.3877 28.5247C12.6475 28.5831 13.0491 28.5967 16.2568 28.5967C19.4645 28.5967 19.8661 28.5831 21.1259 28.5247C22.3833 28.4663 23.2423 28.2631 23.9935 27.9663C24.7808 27.6655 25.495 27.1935 26.0855 26.5823C26.6861 25.983 27.1509 25.2579 27.4477 24.4575C27.739 23.6943 27.939 22.8215 27.9964 21.5439C28.0539 20.2639 28.0673 19.8559 28.0673 16.5967C28.0673 13.3375 28.0539 12.9295 27.9964 11.6495C27.939 10.3719 27.739 9.49908 27.4469 8.73588C27.1504 7.93513 26.6855 7.20974 26.0847 6.61028C25.4949 6.00006 24.7812 5.52777 23.9935 5.22628C23.2423 4.93108 22.3825 4.72708 21.1251 4.66868C19.8661 4.61108 19.4653 4.59668 16.2568 4.59668ZM16.2568 6.75908C19.4102 6.75908 19.7842 6.77108 21.0298 6.82868C22.181 6.88228 22.8061 7.07668 23.2226 7.24228C23.7738 7.45908 24.1675 7.71988 24.5808 8.13908C24.9942 8.55908 25.2501 8.95908 25.4635 9.51908C25.6257 9.94228 25.8178 10.5775 25.8706 11.7471C25.9272 13.0127 25.9391 13.3927 25.9391 16.5967C25.9391 19.8007 25.9272 20.1807 25.8706 21.4463C25.8178 22.6159 25.6265 23.2511 25.4635 23.6743C25.2745 24.1955 24.9729 24.6671 24.5808 25.0543C24.1998 25.4527 23.7357 25.7591 23.2226 25.9511C22.8061 26.1159 22.181 26.3111 21.0298 26.3647C19.7842 26.4223 19.411 26.4343 16.2568 26.4343C13.1026 26.4343 12.7294 26.4223 11.4838 26.3647C10.3326 26.3111 9.70748 26.1167 9.29096 25.9511C8.77796 25.759 8.31384 25.4526 7.93275 25.0543C7.54078 24.667 7.23918 24.1955 7.05011 23.6743C6.88792 23.2511 6.6958 22.6159 6.64304 21.4463C6.58635 20.1807 6.57454 19.8007 6.57454 16.5967C6.57454 13.3927 6.58635 13.0127 6.64304 11.7471C6.6958 10.5775 6.88713 9.94228 7.05011 9.51908C7.26349 8.95908 7.52017 8.55908 7.93275 8.13908C8.31379 7.74072 8.77792 7.43426 9.29096 7.24228C9.70748 7.07748 10.3326 6.88228 11.4838 6.82868C12.7294 6.77108 13.1034 6.75908 16.2568 6.75908V6.75908Z" fill="#FEFEFE"/>
<path fill-rule="evenodd" clip-rule="evenodd" d="M16.2571 20.6009C15.7396 20.6009 15.2272 20.4973 14.7491 20.2961C14.2709 20.0949 13.8365 19.7999 13.4706 19.4281C13.1046 19.0563 12.8144 18.6149 12.6163 18.1292C12.4183 17.6434 12.3164 17.1227 12.3164 16.5969C12.3164 16.0711 12.4183 15.5504 12.6163 15.0646C12.8144 14.5788 13.1046 14.1374 13.4706 13.7656C13.8365 13.3938 14.2709 13.0989 14.7491 12.8977C15.2272 12.6965 15.7396 12.5929 16.2571 12.5929C17.3023 12.5929 18.3046 13.0147 19.0437 13.7656C19.7827 14.5165 20.1979 15.535 20.1979 16.5969C20.1979 17.6588 19.7827 18.6772 19.0437 19.4281C18.3046 20.179 17.3023 20.6009 16.2571 20.6009V20.6009ZM16.2571 10.4289C14.6471 10.4289 13.103 11.0787 11.9646 12.2355C10.8261 13.3922 10.1865 14.961 10.1865 16.5969C10.1865 18.2327 10.8261 19.8016 11.9646 20.9583C13.103 22.115 14.6471 22.7649 16.2571 22.7649C17.8671 22.7649 19.4112 22.115 20.5497 20.9583C21.6881 19.8016 22.3277 18.2327 22.3277 16.5969C22.3277 14.961 21.6881 13.3922 20.5497 12.2355C19.4112 11.0787 17.8671 10.4289 16.2571 10.4289V10.4289ZM24.0938 10.3169C24.0938 10.7036 23.9426 11.0744 23.6735 11.3478C23.4044 11.6213 23.0394 11.7749 22.6588 11.7749C22.2782 11.7749 21.9132 11.6213 21.6441 11.3478C21.375 11.0744 21.2238 10.7036 21.2238 10.3169C21.2238 9.9302 21.375 9.55935 21.6441 9.28593C21.9132 9.0125 22.2782 8.85889 22.6588 8.85889C23.0394 8.85889 23.4044 9.0125 23.6735 9.28593C23.9426 9.55935 24.0938 9.9302 24.0938 10.3169" fill="#FEFEFE"/>
</svg>
