<svg width="32" height="33" viewBox="0 0 32 33" fill="none" xmlns="http://www.w3.org/2000/svg">
<path d="M27.5722 6.36139V26.832C27.5722 27.3 27.3892 27.7489 27.0635 28.0798C26.7378 28.4108 26.296 28.5967 25.8354 28.5967H5.68801C5.22737 28.5967 4.7856 28.4108 4.45988 28.0798C4.13416 27.7489 3.95117 27.3 3.95117 26.832V6.36139C3.95117 5.89336 4.13416 5.4445 4.45988 5.11355C4.7856 4.7826 5.22737 4.59668 5.68801 4.59668H25.8354C26.296 4.59668 26.7378 4.7826 27.0635 5.11355C27.3892 5.4445 27.5722 5.89336 27.5722 6.36139V6.36139ZM10.8985 13.7732H7.42485V25.0673H10.8985V13.7732ZM11.2112 9.8908C11.213 9.62383 11.1631 9.3591 11.0642 9.11174C10.9653 8.86438 10.8195 8.63923 10.635 8.44914C10.4505 8.25905 10.2309 8.10775 9.98886 8.00388C9.7468 7.9 9.48697 7.84559 9.22422 7.84374H9.16169C8.62735 7.84374 8.1149 8.05941 7.73706 8.44331C7.35922 8.82721 7.14696 9.34788 7.14696 9.8908C7.14696 10.4337 7.35922 10.9544 7.73706 11.3383C8.1149 11.7222 8.62735 11.9379 9.16169 11.9379V11.9379C9.42447 11.9444 9.68594 11.8983 9.93117 11.8022C10.1764 11.706 10.4006 11.5617 10.5909 11.3775C10.7812 11.1933 10.934 10.9728 11.0404 10.7286C11.1468 10.4844 11.2049 10.2213 11.2112 9.95433V9.8908ZM24.0985 18.2061C24.0985 14.8108 21.9726 13.4908 19.8606 13.4908C19.1691 13.4556 18.4806 13.6053 17.8638 13.9248C17.247 14.2444 16.7234 14.7227 16.3453 15.312H16.248V13.7732H12.9827V25.0673H16.4564V19.0602C16.4062 18.445 16.5969 17.8345 16.9872 17.3613C17.3774 16.8881 17.9357 16.5905 18.5406 16.5332H18.6726C19.7773 16.5332 20.597 17.239 20.597 19.0179V25.0673H24.0707L24.0985 18.2061Z" fill="#FEFEFE"/>
</svg>
